<svg width="70" height="70" viewBox="0 0 70 70" fill="none" xmlns="http://www.w3.org/2000/svg">
<path d="M65.609 46.0716L62.079 44.2716L58.719 34.3216C58.419 33.4816 57.619 32.9116 56.729 32.9116H48.339C48.129 32.9116 47.929 32.9516 47.739 33.0116V19.9716C47.739 18.1616 46.259 16.6816 44.439 16.6816H5.54899C3.72899 16.6816 2.24899 18.1616 2.24899 19.9716V20.6116C2.24899 22.7516 2.25899 31.1216 2.24899 59.3916C2.24899 60.5916 3.22899 61.5616 4.42899 61.5616H8.21899C8.40899 63.2316 9.24899 64.7116 10.479 65.7416H4.51899C4.10899 65.7416 3.76899 66.0816 3.76899 66.4916C3.76899 66.9116 4.10899 67.2416 4.51899 67.2416H65.479C65.889 67.2416 66.229 66.9116 66.229 66.4916C66.229 66.0816 65.889 65.7416 65.479 65.7416H60.359C61.589 64.7116 62.429 63.2316 62.629 61.5616H65.069C66.549 61.5616 67.749 60.3616 67.749 58.8816C67.749 50.7716 67.749 49.5516 67.749 49.5516C67.749 48.0716 66.929 46.7416 65.609 46.0716ZM3.74899 19.9716C3.74899 18.9816 4.55899 18.1816 5.54899 18.1816H17.169V26.9616C17.169 28.4916 18.939 29.3416 20.139 28.3916L24.789 24.6816C24.909 24.5816 25.079 24.5816 25.199 24.6816L29.859 28.3916C31.049 29.3416 32.819 28.4916 32.819 26.9616V18.1816H44.439C45.429 18.1816 46.239 18.9816 46.239 19.9716V52.0416H3.74899V19.9716ZM4.42899 60.0616C4.04899 60.0616 3.74899 59.7716 3.74899 59.3916V53.5816H46.239V60.0616H20.979C20.609 56.8716 17.889 54.3816 14.599 54.3816C11.309 54.3816 8.58899 56.8716 8.21899 60.0616H4.42899ZM14.599 65.7416C11.879 65.7416 9.66899 63.5316 9.66899 60.8116C9.66899 58.0916 11.879 55.8816 14.599 55.8816C17.319 55.8816 19.529 58.0916 19.529 60.8116C19.529 63.5316 17.319 65.7416 14.599 65.7416ZM18.709 65.7416C19.939 64.7116 20.779 63.2316 20.979 61.5616H49.869C50.059 63.2316 50.899 64.7116 52.129 65.7416H18.709ZM56.249 65.7416C53.529 65.7416 51.319 63.5316 51.319 60.8116C51.319 58.0916 53.529 55.8816 56.249 55.8816C58.959 55.8816 61.179 58.0916 61.179 60.8116C61.179 63.5316 58.959 65.7416 56.249 65.7416ZM66.249 49.6016H64.559C63.739 49.6016 63.079 50.2616 63.079 51.0716V54.4116C63.079 55.2216 63.739 55.8816 64.559 55.8816H66.249V58.8816C66.249 59.5316 65.719 60.0616 65.069 60.0616H62.629C62.249 56.8716 59.539 54.3816 56.249 54.3816C52.959 54.3816 50.239 56.8716 49.869 60.0616H47.739V35.0116C47.739 34.6716 47.999 34.4116 48.339 34.4116H56.729C56.989 34.4116 57.219 34.5716 57.299 34.8116L60.709 44.8816C60.779 45.1416 60.949 45.3616 61.239 45.5216L64.929 47.4116C65.739 47.8216 66.249 48.6516 66.249 49.5616V49.6016Z" fill="#FFFEFE"/>
<path d="M56.579 36.9117C56.339 36.2017 55.639 35.7617 54.939 35.7417L50.779 35.7617C49.829 35.7717 49.059 36.5517 49.059 37.4917V43.5817C49.059 44.5317 49.839 45.3117 50.789 45.3117H57.039C58.219 45.3117 59.049 44.1417 58.669 43.0217L56.579 36.9117Z" fill="#FFFEFE"/>
<path d="M56.249 58.002C54.699 58.002 53.429 59.262 53.429 60.812C53.429 62.362 54.699 63.622 56.249 63.622C57.799 63.622 59.059 62.362 59.059 60.812C59.059 59.262 57.799 58.002 56.249 58.002Z" fill="#FFFEFE"/>
<path d="M14.599 58.002C13.049 58.002 11.789 59.262 11.789 60.812C11.789 62.362 13.049 63.622 14.599 63.622C16.149 63.622 17.409 62.362 17.409 60.812C17.409 59.262 16.149 58.002 14.599 58.002Z" fill="#FFFEFE"/>
<path d="M53.028 47.3457H50.569C50.155 47.3457 49.819 47.6817 49.819 48.0957C49.819 48.5097 50.155 48.8457 50.569 48.8457H53.028C53.442 48.8457 53.778 48.5097 53.778 48.0957C53.778 47.6817 53.442 47.3457 53.028 47.3457Z" fill="#FFFEFE"/>
<path d="M20.649 39.832H9.63899C8.87899 39.832 8.25899 40.452 8.25899 41.212V46.362C8.25899 47.122 8.87899 47.742 9.63899 47.742H20.649C21.409 47.742 22.029 47.122 22.029 46.362V41.212C22.029 40.452 21.409 39.832 20.649 39.832Z" fill="#FFFEFE"/>
<path d="M8.64699 8.00977H30.821C32.359 8.00977 33.611 9.26477 33.611 10.8078C33.611 12.3468 32.359 13.5978 30.821 13.5978C29.278 13.5978 28.023 12.3468 28.023 10.8078C28.023 10.3938 27.687 10.0578 27.273 10.0578C26.859 10.0578 26.523 10.3938 26.523 10.8078C26.523 13.1738 28.451 15.0978 30.821 15.0978C33.186 15.0978 35.111 13.1738 35.111 10.8078C35.111 8.43777 33.186 6.50977 30.821 6.50977H8.64699C8.23299 6.50977 7.89699 6.84577 7.89699 7.25977C7.89699 7.67377 8.23299 8.00977 8.64699 8.00977Z" fill="#FFFEFE"/>
<path d="M6.42499 11.5537H8.83899C9.25299 11.5537 9.58899 11.2177 9.58899 10.8037C9.58899 10.3897 9.25299 10.0537 8.83899 10.0537H6.42499C6.01099 10.0537 5.67499 10.3897 5.67499 10.8037C5.67499 11.2177 6.01099 11.5537 6.42499 11.5537Z" fill="#FFFEFE"/>
<path d="M12.716 10.0537C12.302 10.0537 11.966 10.3897 11.966 10.8037C11.966 11.2177 12.302 11.5537 12.716 11.5537H22.024C22.438 11.5537 22.774 11.2177 22.774 10.8037C22.774 10.3897 22.438 10.0537 22.024 10.0537H12.716Z" fill="#FFFEFE"/>
<path d="M17.517 4.25781H31.327C31.741 4.25781 32.077 3.92181 32.077 3.50781C32.077 3.09381 31.741 2.75781 31.327 2.75781H17.517C17.103 2.75781 16.767 3.09381 16.767 3.50781C16.767 3.92181 17.103 4.25781 17.517 4.25781Z" fill="#FFFEFE"/>
<path d="M43.78 10.0796H62.955C64.773 10.0796 66.252 11.5626 66.252 13.3856C66.252 15.2036 64.773 16.6816 62.955 16.6816C61.133 16.6816 59.649 15.2026 59.649 13.3856C59.649 12.9716 59.313 12.6356 58.899 12.6356C58.485 12.6356 58.149 12.9716 58.149 13.3856C58.149 16.0306 60.305 18.1816 62.955 18.1816C65.6 18.1816 67.752 16.0296 67.752 13.3856C67.752 10.7356 65.6 8.57959 62.955 8.57959H43.78C43.366 8.57959 43.03 8.91559 43.03 9.32959C43.03 9.74359 43.365 10.0796 43.78 10.0796Z" fill="#FFFEFE"/>
<path d="M46.383 5.70361H50.072C50.486 5.70361 50.822 5.36761 50.822 4.95361C50.822 4.53961 50.486 4.20361 50.072 4.20361H46.383C45.969 4.20361 45.633 4.53961 45.633 4.95361C45.633 5.36761 45.969 5.70361 46.383 5.70361Z" fill="#FFFEFE"/>
<path d="M55.895 5.70361H63.476C63.89 5.70361 64.226 5.36761 64.226 4.95361C64.226 4.53961 63.89 4.20361 63.476 4.20361H55.895C55.481 4.20361 55.145 4.53961 55.145 4.95361C55.145 5.36761 55.481 5.70361 55.895 5.70361Z" fill="#FFFEFE"/>
</svg>
