<svg width="70" height="70" viewBox="0 0 70 70" fill="none" xmlns="http://www.w3.org/2000/svg">
<path d="M69.7444 38.9385C66.2633 33.7171 66.5375 34.1198 66.4504 34.0166C65.8337 33.2936 64.7251 33.307 64.1292 34.0174C64.0364 34.1266 64.3142 33.7194 60.8352 38.9385C60.3687 39.6378 60.5581 40.583 61.2571 41.0486C61.8664 41.4551 62.6615 41.3636 63.1652 40.8711C60.9717 51.4257 52.9729 60.0732 42.227 62.8529C41.4132 63.063 40.9243 63.8939 41.1347 64.7076C41.3458 65.5234 42.1777 66.0096 42.9894 65.8C55.5297 62.5551 64.6869 52.0881 66.4865 39.5398L67.2118 40.6271C67.6791 41.3291 68.625 41.5143 69.3219 41.0489C70.0216 40.583 70.2103 39.6385 69.7444 38.9385Z" fill="white"/>
<path d="M3.55023 35.983C4.20701 36.755 5.41526 36.6823 5.97556 35.8456C6.06991 35.7036 9.15431 31.0769 9.16466 31.0613C9.63122 30.3621 9.44177 29.417 8.74268 28.9512C8.13338 28.5447 7.33828 28.6369 6.83458 29.1295C9.06666 18.3592 17.2356 9.87322 27.7727 7.14706C28.5864 6.93675 29.0753 6.10681 28.8642 5.29314C28.6547 4.47948 27.824 3.98994 27.0103 4.20085C14.687 7.38855 5.33963 17.6839 3.51477 30.4625L2.78814 29.3733C2.32158 28.6741 1.37719 28.4854 0.677958 28.9513C-0.0212783 29.4173 -0.210734 30.3623 0.255982 31.0615L3.44432 35.8444C3.4641 35.8718 3.48632 35.9089 3.55023 35.983Z" fill="white"/>
<path d="M33.4961 4.48762C33.4188 5.0152 33.6209 5.53457 34.0162 5.87041C34.1217 5.95958 33.7146 5.68324 38.9389 9.16508C39.635 9.62951 40.581 9.44523 41.049 8.74311C41.4547 8.13381 41.3633 7.33811 40.8707 6.83503C51.4256 9.02843 60.0731 17.0272 62.8527 27.7721C63.0303 28.4579 63.6478 28.9134 64.3255 28.9134C65.3175 28.9134 66.0493 27.9764 65.7997 27.0097C62.5549 14.4703 52.0877 5.31316 39.5393 3.51281L40.6269 2.78832C41.3263 2.32176 41.5148 1.37738 41.0489 0.67815C40.5823 -0.0218413 39.6372 -0.210534 38.9387 0.256177C38.9224 0.266525 34.1387 3.45559 34.1544 3.44525C34.0237 3.5329 33.8861 3.6592 33.7755 3.81C33.6997 3.91256 33.5318 4.24689 33.4961 4.48762Z" fill="white"/>
<path d="M36.0202 64.1625C35.9006 64.0548 36.3367 64.3485 31.0619 60.8353C30.3619 60.3687 29.4175 60.5574 28.9517 61.2571C28.5445 61.8664 28.6367 62.6615 29.1293 63.1646C18.5744 60.9718 9.92687 52.9729 7.14651 42.2274C6.93697 41.4137 6.10702 40.9254 5.29258 41.135C4.47891 41.3462 3.98998 42.1761 4.20029 42.9896C7.44508 55.5297 17.9131 64.6869 30.4599 66.4865L29.3735 67.2118C28.6735 67.6779 28.4849 68.6227 28.9516 69.3219C29.4181 70.0233 30.364 70.2091 31.0618 69.7439C36.3046 66.2485 35.8811 66.5363 35.9829 66.45C36.0765 66.3699 36.1561 66.282 36.2236 66.1907C36.6859 65.5668 36.6018 64.69 36.0202 64.1625Z" fill="white"/>
<path d="M16.7392 50.2176C16.7392 51.0578 17.4207 51.7393 18.261 51.7393H51.7392C52.5795 51.7393 53.261 51.0578 53.261 50.2176V35.0004H57.8262C58.3874 35.0004 58.9028 34.6914 59.168 34.1965C59.4323 33.7016 59.4036 33.1013 59.0922 32.6346L53.0053 23.5043C52.723 23.0808 52.2481 22.8267 51.7392 22.8267C49.8801 22.8267 20.1199 22.8267 18.261 22.8267C17.7519 22.8267 17.2772 23.0808 16.9949 23.5043L10.908 32.6346C10.5966 33.1012 10.5677 33.7016 10.8322 34.1965C11.0966 34.6914 11.6124 35.0004 12.174 35.0004H16.7392V50.2176ZM19.7827 47.1742H33.4783V48.6959H19.7827V47.1742ZM36.5217 48.6959V47.1742H50.2175V48.6959H36.5217ZM50.2175 44.1307H36.5217V29.3742L39.821 34.3228C40.1031 34.7463 40.5781 35.0004 41.0869 35.0004H50.2175V44.1307ZM50.9248 25.8701L54.9825 31.957H41.9012L37.8437 25.8701H50.9248ZM19.0752 25.8701H32.1571L28.0987 31.957H15.0168L19.0752 25.8701ZM28.9131 35.0004C29.4221 35.0004 29.8969 34.7463 30.1792 34.3228L33.4783 29.3742V44.1307H19.7827V35.0004H28.9131Z" fill="white"/>
<path d="M6.08699 56.3042C3.56958 56.3042 1.52179 58.352 1.52179 60.8694C1.52179 63.3867 3.56958 65.4347 6.08699 65.4347C8.60439 65.4347 10.6522 63.3867 10.6522 60.8694C10.6522 58.352 8.60439 56.3042 6.08699 56.3042ZM6.08699 62.3911C5.24729 62.3911 4.56525 61.7084 4.56525 60.8694C4.56525 60.0306 5.24729 59.3476 6.08699 59.3476C6.92668 59.3476 7.60872 60.0306 7.60872 60.8694C7.60872 61.7084 6.92668 62.3911 6.08699 62.3911Z" fill="white"/>
<path d="M9.13044 10.6523C11.6478 10.6523 13.6956 8.60375 13.6956 6.08713C13.6956 3.56975 11.6478 1.52197 9.13044 1.52197C6.61304 1.52197 4.56525 3.56975 4.56525 6.08713C4.56525 8.60375 6.61304 10.6523 9.13044 10.6523ZM9.13044 4.56541C9.97014 4.56541 10.6522 5.24745 10.6522 6.08713C10.6522 6.92606 9.97014 7.60885 9.13044 7.60885C8.29075 7.60885 7.60871 6.92606 7.60871 6.08713C7.60871 5.24745 8.29075 4.56541 9.13044 4.56541Z" fill="white"/>
<path d="M61.6305 10.6525C64.567 10.6525 66.9566 8.26297 66.9566 5.32651C66.9566 2.38928 64.567 0.000488281 61.6305 0.000488281C58.694 0.000488281 56.3044 2.38928 56.3044 5.32651C56.3044 8.26297 58.694 10.6525 61.6305 10.6525ZM61.6305 3.04393C62.8891 3.04393 63.9131 4.06789 63.9131 5.32651C63.9131 6.58527 62.8891 7.60909 61.6305 7.60909C60.3719 7.60909 59.3479 6.58512 59.3479 5.32651C59.3479 4.06774 60.3719 3.04393 61.6305 3.04393Z" fill="white"/>
<path d="M63.9131 16.7397C64.7535 16.7397 65.4348 16.0584 65.4348 15.218C65.4348 14.3776 64.7535 13.6963 63.9131 13.6963C63.0727 13.6963 62.3914 14.3776 62.3914 15.218C62.3914 16.0584 63.0727 16.7397 63.9131 16.7397Z" fill="white"/>
<path d="M3.04352 18.2612C3.88395 18.2612 4.56525 17.5799 4.56525 16.7395C4.56525 15.8991 3.88395 15.2178 3.04352 15.2178C2.20309 15.2178 1.52179 15.8991 1.52179 16.7395C1.52179 17.5799 2.20309 18.2612 3.04352 18.2612Z" fill="white"/>
<path d="M13.6956 65.4346C14.5361 65.4346 15.2174 64.7533 15.2174 63.9128C15.2174 63.0724 14.5361 62.3911 13.6956 62.3911C12.8552 62.3911 12.1739 63.0724 12.1739 63.9128C12.1739 64.7533 12.8552 65.4346 13.6956 65.4346Z" fill="white"/>
<path d="M56.3044 66.9565C57.1449 66.9565 57.8262 66.2752 57.8262 65.4348C57.8262 64.5944 57.1449 63.9131 56.3044 63.9131C55.464 63.9131 54.7827 64.5944 54.7827 65.4348C54.7827 66.2752 55.464 66.9565 56.3044 66.9565Z" fill="white"/>
<path d="M63.9131 60.8696C64.7535 60.8696 65.4348 60.1883 65.4348 59.3479C65.4348 58.5075 64.7535 57.8262 63.9131 57.8262C63.0727 57.8262 62.3914 58.5075 62.3914 59.3479C62.3914 60.1883 63.0727 60.8696 63.9131 60.8696Z" fill="white"/>
<path d="M21.3044 21.3047C22.1449 21.3047 22.8262 20.6234 22.8262 19.783C22.8262 18.9425 22.1449 18.2612 21.3044 18.2612C20.464 18.2612 19.7827 18.9425 19.7827 19.783C19.7827 20.6234 20.464 21.3047 21.3044 21.3047Z" fill="white"/>
<path d="M25.8696 21.3047C26.7101 21.3047 27.3914 20.6234 27.3914 19.783C27.3914 18.9425 26.7101 18.2612 25.8696 18.2612C25.0292 18.2612 24.3479 18.9425 24.3479 19.783C24.3479 20.6234 25.0292 21.3047 25.8696 21.3047Z" fill="white"/>
<path d="M30.4348 21.3047C31.2752 21.3047 31.9566 20.6234 31.9566 19.783C31.9566 18.9425 31.2752 18.2612 30.4348 18.2612C29.5944 18.2612 28.9131 18.9425 28.9131 19.783C28.9131 20.6234 29.5944 21.3047 30.4348 21.3047Z" fill="white"/>
<path d="M35 21.3047C35.8404 21.3047 36.5217 20.6234 36.5217 19.783C36.5217 18.9425 35.8404 18.2612 35 18.2612C34.1596 18.2612 33.4783 18.9425 33.4783 19.783C33.4783 20.6234 34.1596 21.3047 35 21.3047Z" fill="white"/>
<path d="M39.5652 21.3047C40.4056 21.3047 41.0869 20.6234 41.0869 19.783C41.0869 18.9425 40.4056 18.2612 39.5652 18.2612C38.7248 18.2612 38.0435 18.9425 38.0435 19.783C38.0435 20.6234 38.7248 21.3047 39.5652 21.3047Z" fill="white"/>
<path d="M44.1304 21.3047C44.9709 21.3047 45.6522 20.6234 45.6522 19.783C45.6522 18.9425 44.9709 18.2612 44.1304 18.2612C43.29 18.2612 42.6087 18.9425 42.6087 19.783C42.6087 20.6234 43.29 21.3047 44.1304 21.3047Z" fill="white"/>
<path d="M48.6957 21.3047C49.5362 21.3047 50.2175 20.6234 50.2175 19.783C50.2175 18.9425 49.5362 18.2612 48.6957 18.2612C47.8553 18.2612 47.174 18.9425 47.174 19.783C47.174 20.6234 47.8553 21.3047 48.6957 21.3047Z" fill="white"/>
</svg>
