<svg width="70" height="70" viewBox="0 0 70 70" fill="none" xmlns="http://www.w3.org/2000/svg">
<path d="M67.5282 56.875L58.1875 40.7094C60.3102 36.7093 61.3619 32.2282 61.2406 27.7015C61.1193 23.1747 59.829 18.7564 57.4951 14.8758C55.1612 10.9952 51.8632 7.78435 47.9214 5.55529C43.9797 3.32624 39.5284 2.15479 35 2.15479C30.4717 2.15479 26.0203 3.32624 22.0786 5.55529C18.1369 7.78435 14.8388 10.9952 12.5049 14.8758C10.1711 18.7564 8.88078 23.1747 8.75945 27.7015C8.63812 32.2282 9.68988 36.7093 11.8125 40.7094L2.4719 56.875C2.27991 57.2075 2.17883 57.5847 2.17883 57.9687C2.17883 58.3527 2.27991 58.7299 2.4719 59.0625C2.66463 59.3963 2.94215 59.6733 3.27635 59.8653C3.61055 60.0574 3.98957 60.1578 4.37503 60.1562H11.9438L15.75 66.7187C15.9409 67.0493 16.215 67.3242 16.545 67.5161C16.875 67.708 17.2495 67.8102 17.6313 67.8125C18.0167 67.814 18.3958 67.7137 18.73 67.5216C19.0642 67.3295 19.3417 67.0525 19.5344 66.7187L27.1688 53.4844C32.2665 55.088 37.7336 55.088 42.8313 53.4844L50.4657 66.7187C50.6584 67.0525 50.9359 67.3295 51.2701 67.5216C51.6043 67.7137 51.9833 67.814 52.3688 67.8125C52.7505 67.8102 53.125 67.708 53.4551 67.5161C53.7851 67.3242 54.0592 67.0493 54.25 66.7187L58.0563 60.1562H65.625C66.0105 60.1578 66.3895 60.0574 66.7237 59.8653C67.0579 59.6733 67.3354 59.3963 67.5282 59.0625C67.7201 58.7299 67.8212 58.3527 67.8212 57.9687C67.8212 57.5847 67.7201 57.2075 67.5282 56.875ZM17.6313 61.25L15.0938 56.875C14.89 56.5394 14.5997 56.2648 14.2533 56.0801C13.9069 55.8953 13.5172 55.8072 13.125 55.825H8.1594L14.5032 44.8875C16.8378 47.8062 19.7687 50.1928 23.1 51.8875L17.6313 61.25ZM13.125 28.4375C13.125 24.111 14.408 19.8817 16.8116 16.2844C19.2153 12.6871 22.6317 9.88328 26.6288 8.22761C30.626 6.57194 35.0243 6.13875 39.2676 6.9828C43.511 7.82685 47.4087 9.91024 50.468 12.9695C53.5273 16.0288 55.6107 19.9265 56.4547 24.1699C57.2988 28.4132 56.8656 32.8115 55.2099 36.8087C53.5542 40.8058 50.7505 44.2222 47.1531 46.6259C43.5558 49.0295 39.3265 50.3125 35 50.3125C29.1984 50.3125 23.6344 48.0078 19.5321 43.9054C15.4297 39.8031 13.125 34.2391 13.125 28.4375ZM56.875 55.825C56.4954 55.825 56.1223 55.9239 55.7925 56.1118C55.4626 56.2998 55.1874 56.5703 54.9938 56.8969L52.4563 61.2719L46.9875 51.8C50.3188 50.1053 53.2498 47.7187 55.5844 44.8L61.9282 55.7375L56.875 55.825Z" fill="#FFFDFD"/>
<path d="M35 10.9375C31.5388 10.9375 28.1554 11.9639 25.2775 13.8868C22.3997 15.8097 20.1566 18.5428 18.8321 21.7405C17.5076 24.9382 17.161 28.4569 17.8363 31.8516C18.5115 35.2462 20.1782 38.3645 22.6256 40.8119C25.0731 43.2593 28.1913 44.926 31.5859 45.6012C34.9806 46.2765 38.4993 45.9299 41.697 44.6054C44.8947 43.2809 47.6278 41.0378 49.5507 38.16C51.4736 35.2821 52.5 31.8987 52.5 28.4375C52.5 23.7962 50.6563 19.345 47.3744 16.0631C44.0925 12.7812 39.6413 10.9375 35 10.9375ZM35 41.5625C32.4041 41.5625 29.8665 40.7927 27.7081 39.3505C25.5498 37.9083 23.8675 35.8585 22.8741 33.4602C21.8807 31.0619 21.6208 28.4229 22.1272 25.8769C22.6336 23.3309 23.8837 20.9923 25.7192 19.1567C27.5548 17.3212 29.8934 16.0711 32.4394 15.5647C34.9854 15.0583 37.6244 15.3182 40.0227 16.3116C42.421 17.305 44.4709 18.9872 45.913 21.1456C47.3552 23.304 48.125 25.8416 48.125 28.4375C48.125 31.9185 46.7422 35.2569 44.2808 37.7183C41.8194 40.1797 38.481 41.5625 35 41.5625Z" fill="white"/>
<path d="M33.1406 29.0064L29.5313 25.3971L26.4469 28.4377L31.5875 33.5783C31.7909 33.7834 32.0328 33.9461 32.2994 34.0571C32.566 34.1682 32.8519 34.2254 33.1406 34.2254C33.4294 34.2254 33.7153 34.1682 33.9819 34.0571C34.2485 33.9461 34.4904 33.7834 34.6938 33.5783L43.5531 24.8283L40.4688 21.7002L33.1406 29.0064Z" fill="white"/>
</svg>
