<svg width="70" height="70" viewBox="0 0 70 70" fill="none" xmlns="http://www.w3.org/2000/svg">
<path fill-rule="evenodd" clip-rule="evenodd" d="M67.6026 53.401L61.3739 54.5655C61.3678 54.5667 61.3478 54.5707 61.3229 54.5545C61.305 54.5442 61.2947 54.5306 61.2919 54.5144L56.4511 31.7148C56.4435 31.6817 56.4704 31.645 56.505 31.6378L62.7356 30.474C62.7383 30.4733 62.7432 30.4728 62.7473 30.4728C62.7775 30.4728 62.81 30.4961 62.8176 30.5252L67.6582 53.3248C67.6654 53.3571 67.6377 53.3946 67.6026 53.401ZM54.8714 55.4011L58.3923 52.0982L54.6624 34.5322C50.5737 35.7401 45.2632 36.0812 38.9291 31.1782C37.2251 29.859 35.0362 29.7898 33.4842 31.0067L25.1315 37.5505C24.6149 37.9544 24.0443 38.6261 24.2568 39.5343L26.5215 49.2742C30.6275 47.8981 30.898 45.0068 31.2622 41.1239C31.2899 40.8326 31.3181 40.54 31.3471 40.2468C31.3484 40.2384 31.3484 40.2294 31.3504 40.221C31.4581 39.3647 31.9906 38.7096 32.8115 38.4223C34.5244 37.8222 37.3038 38.966 40.2461 41.4813C40.262 41.4942 40.2763 41.5078 40.2908 41.5221L54.8714 55.4011ZM53.4083 60.1046C52.477 60.9784 50.9613 60.9784 50.0293 60.1046L39.4326 50.1608C38.9745 49.7323 38.2343 49.7323 37.7763 50.1608C37.3196 50.59 37.3196 51.2851 37.7763 51.7143L48.3744 61.6581C49.3064 62.5318 49.3064 63.9539 48.3744 64.8277C47.9253 65.2484 47.3258 65.4802 46.685 65.4802C46.0441 65.4802 45.4446 65.2485 44.9955 64.8277L33.7972 54.3207C33.3412 53.8915 32.5996 53.8915 32.1429 54.3207C31.6848 54.7493 31.6848 55.4443 32.1429 55.8735L40.5955 63.8043C41.5268 64.6781 41.5268 66.1002 40.5955 66.9746C39.665 67.8484 38.1473 67.8484 37.216 66.9746L28.1639 58.4807C27.7072 58.0515 26.9657 58.0515 26.509 58.4807C26.0515 58.9092 26.0515 59.6042 26.509 60.0327L30.7163 63.981C31.1654 64.4024 31.4116 64.9648 31.4116 65.5661C31.4116 66.1674 31.1652 66.7306 30.7163 67.1513C30.2672 67.572 29.6677 67.8038 29.0268 67.8038C28.386 67.8038 27.7865 67.5721 27.3374 67.1513L11.5546 52.3435L15.5612 33.4752H26.6801L23.6304 35.8643C22.2203 36.9692 21.6147 38.4779 21.9686 40.0028L24.5024 50.8968C24.57 51.1861 24.7597 51.4379 25.0274 51.5945C25.2957 51.7511 25.62 51.7997 25.9256 51.7291C28.9919 51.0203 31.0428 49.632 32.1955 47.4856C33.1889 45.6352 33.3952 43.4396 33.5939 41.316C33.6208 41.0351 33.647 40.7529 33.6759 40.4694V40.4642C34.125 40.3581 35.92 40.7593 38.6469 43.0843L53.8952 57.5996C54.2947 58.4406 54.105 59.4516 53.4083 60.1046ZM8.67734 54.5545C8.69519 54.5442 8.70499 54.5306 8.70762 54.5144L13.5489 31.7148C13.5517 31.6986 13.5489 31.6824 13.5365 31.6669C13.5207 31.6429 13.5007 31.6391 13.4944 31.6378L7.26379 30.474C7.26101 30.4733 7.25691 30.4728 7.25267 30.4728C7.22166 30.4728 7.18918 30.4961 7.1823 30.5252L2.34172 53.3247C2.33411 53.3571 2.36176 53.3946 2.39686 53.401L8.62614 54.5655C8.6317 54.5667 8.65247 54.5707 8.67734 54.5545ZM32.4059 29.0163C27.5046 27.9068 23.9974 23.7631 23.9974 18.9824C23.9974 13.2905 28.9332 8.65993 34.9997 8.65993C41.0661 8.65993 46.0021 13.2905 46.0021 18.9824C46.0021 23.2615 43.2021 27.0705 38.9864 28.6059C36.8168 27.5852 34.3623 27.7166 32.4059 29.0163ZM22.8833 29.9548C22.8495 28.3301 21.7712 26.936 20.1328 26.4039C19.1629 26.0888 18.3598 25.2537 17.984 24.1695C17.6094 23.086 17.7351 21.9669 18.3234 21.1772C19.3146 19.8438 19.3146 18.1209 18.3234 16.7876C17.7349 15.9978 17.6094 14.8788 17.984 13.7953C18.36 12.7111 19.1629 11.8762 20.1328 11.5609C21.7712 11.0295 22.8495 9.63526 22.8833 8.01003C22.9033 7.04691 23.5021 6.07145 24.4838 5.40165C25.4668 4.73239 26.6396 4.49934 27.6226 4.77961C29.2803 5.25218 31.0257 4.72004 32.0715 3.42299C32.6903 2.65464 33.7858 2.1958 34.9998 2.1958C36.214 2.1958 37.3101 2.65464 37.9289 3.42299C38.9734 4.72004 40.72 5.25218 42.3785 4.77961C43.3602 4.49934 44.5335 4.73239 45.5166 5.40165C46.4983 6.07227 47.0963 7.04691 47.1171 8.01003C47.1502 9.63526 48.2284 11.0295 49.8668 11.5609C50.8368 11.8762 51.6404 12.7111 52.0163 13.7953C52.3902 14.8788 52.2647 15.998 51.6762 16.7881C50.685 18.1209 50.685 19.8438 51.6762 21.1772C52.2646 21.9669 52.3902 23.086 52.0163 24.1701C51.6404 25.2536 50.8367 26.0886 49.8668 26.4038C48.2284 26.9358 47.1496 28.33 47.1171 29.9547C47.0978 30.8556 46.5687 31.7677 45.7084 32.424C44.2935 31.9509 42.7958 31.1961 41.2072 30.068C45.547 27.9328 48.343 23.6926 48.343 18.9824C48.343 12.08 42.3571 6.46386 35 6.46386C27.6434 6.46386 21.6577 12.0802 21.6577 18.9824C21.6577 24.2408 25.1567 28.864 30.2455 30.6829L29.484 31.279H23.2699C23.0247 30.8533 22.8916 30.4033 22.8833 29.9548ZM69.9536 52.8955L65.1129 30.0959C64.8522 28.8732 63.5807 28.0765 62.2775 28.3198L56.0489 29.4843C54.7457 29.7276 53.8951 30.9205 54.1559 32.1439L54.2029 32.3646C52.4355 32.9089 50.4874 33.2617 48.3267 33.0126C49.0311 32.1188 49.4354 31.0747 49.4574 29.9969C49.4705 29.2915 49.9209 28.7102 50.6315 28.4792C52.2905 27.9406 53.6406 26.5834 54.2408 24.8487C54.8416 23.114 54.6002 21.272 53.5958 19.9204C53.1653 19.3424 53.1653 18.6234 53.5958 18.0447C54.6002 16.6933 54.8417 14.8511 54.2408 13.1171C53.6406 11.3825 52.2906 10.0252 50.6315 9.48606C49.9209 9.25492 49.4704 8.67379 49.4574 7.9683C49.4236 6.32097 48.4639 4.69767 46.8911 3.62585C45.319 2.55403 43.3777 2.19923 41.6965 2.67893C40.9784 2.88344 40.2484 2.66219 39.7946 2.09903C38.7357 0.785095 36.9441 0.000686272 34.9995 0C33.0555 0 31.2634 0.785095 30.2044 2.09903C29.7512 2.66219 29.0227 2.88413 28.3026 2.67893C26.622 2.19936 24.6808 2.55334 23.108 3.62585C21.5358 4.69767 20.5762 6.32097 20.5424 7.9683C20.5293 8.67379 20.0788 9.25506 19.3676 9.48606C17.7086 10.0246 16.3585 11.3825 15.7583 13.1166C15.1575 14.8512 15.3989 16.6933 16.404 18.0448C16.8338 18.6235 16.8338 19.3426 16.404 19.9205C15.3989 21.2721 15.1575 23.1142 15.7583 24.8488C16.3585 26.5829 17.7084 27.9407 19.3676 28.4793C20.0788 28.7103 20.5293 29.2916 20.5424 29.9971C20.5513 30.4301 20.6232 30.8599 20.7528 31.2793H15.8483C15.7883 30.9861 15.6669 30.7038 15.484 30.4475C15.1253 29.944 14.581 29.6022 13.9512 29.4844L7.72195 28.32C6.41884 28.0759 5.14747 28.8734 4.88738 30.096L0.0466411 52.8955C-0.212723 54.1182 0.635879 55.311 1.93958 55.5551L8.16812 56.7189C8.32611 56.7486 8.48542 56.7635 8.64209 56.7635C9.11327 56.7635 9.57554 56.6328 9.97768 56.3809C10.5131 56.0451 10.8772 55.5343 11.0034 54.9435L11.0062 54.933L25.6827 68.7042C26.5741 69.5398 27.7619 70 29.0271 70C30.2937 70 31.4817 69.5398 32.3715 68.7042C32.9738 68.1384 33.3939 67.4453 33.6015 66.6886L35.562 68.5274C37.4059 70.2575 40.4068 70.2575 42.2513 68.5267C42.8674 67.948 43.2786 67.2478 43.4813 66.508C44.3546 67.2627 45.4853 67.6763 46.685 67.6763C47.9522 67.6763 49.1395 67.2161 50.0293 66.3805C51.0332 65.44 51.4891 64.1785 51.4028 62.9455C52.7163 63.0278 54.0608 62.5979 55.0632 61.6575C56.3008 60.4976 56.7291 58.7689 56.236 57.2264L58.9422 54.6872L58.9967 54.9435C59.1222 55.5343 59.4864 56.0451 60.0218 56.3809C60.424 56.6328 60.8868 56.7635 61.3574 56.7635C61.5139 56.7635 61.674 56.7486 61.832 56.7189L68.0605 55.5551C69.3638 55.3112 70.2122 54.1183 69.9536 52.8955ZM35.6054 21.1418L37.804 22.3904L37.2177 20.0441C37.1183 19.646 37.2618 19.2292 37.5923 18.9618L39.5363 17.3871L36.9763 17.1852C36.5417 17.1509 36.1643 16.8933 35.996 16.5166L34.9998 14.2946L34.0038 16.5166C33.8355 16.8933 33.4581 17.1509 33.0235 17.1852L30.4635 17.3871L32.4082 18.9618C32.7387 19.2292 32.8822 19.646 32.7821 20.0441L32.1958 22.3904L34.3943 21.1418C34.5806 21.0356 34.7896 20.9833 35 20.9833C35.2108 20.9832 35.4198 21.0356 35.6054 21.1418ZM39.579 25.7806C39.8198 25.7806 40.0612 25.7108 40.2661 25.5709C40.6483 25.3113 40.8249 24.8621 40.7187 24.4324L39.6577 20.1896L43.1732 17.3422C43.5299 17.0536 43.6678 16.592 43.5215 16.172C43.376 15.7513 42.9759 15.4542 42.5062 15.4165L37.8793 15.0521L36.0796 11.0353C35.8967 10.6275 35.4712 10.3627 35 10.3627C34.5288 10.3627 34.1031 10.6275 33.9217 11.0353L32.1212 15.0521L27.4943 15.4165C27.0246 15.454 26.6238 15.7512 26.479 16.172C26.3327 16.592 26.4701 17.0536 26.8273 17.3422L30.3421 20.1896L29.2818 24.4324C29.1749 24.8621 29.3522 25.3113 29.7337 25.5709C30.1137 25.8311 30.625 25.8505 31.0271 25.6221L35 23.3644L38.9735 25.6221C39.1589 25.7282 39.3692 25.7806 39.579 25.7806Z" fill="white"/>
</svg>
